<mxfile host="app.diagrams.net" modified="2024-06-02T21:26:02.136Z" agent="Mozilla/5.0 (Windows NT 10.0; Win64; x64) AppleWebKit/537.36 (KHTML, like Gecko) Chrome/123.0.0.0 Safari/537.36 OPR/109.0.0.0" etag="5ju5pNJrhaY8n7EdIZcP" version="24.4.13" type="github">
  <diagram name="Página-1" id="FBLGv1hv-2mMswPloxH5">
    <mxGraphModel dx="464" dy="526" grid="1" gridSize="10" guides="1" tooltips="1" connect="1" arrows="1" fold="1" page="1" pageScale="1" pageWidth="1169" pageHeight="1654" math="0" shadow="0">
      <root>
        <mxCell id="0" />
        <mxCell id="1" parent="0" />
        <mxCell id="qOKPLslwm29kg5f4DnjJ-23" value="" style="group" vertex="1" connectable="0" parent="1">
          <mxGeometry x="40" y="20" width="230" height="130" as="geometry" />
        </mxCell>
        <mxCell id="qOKPLslwm29kg5f4DnjJ-2" value="Usuarios" style="shape=table;startSize=30;container=1;collapsible=0;childLayout=tableLayout;fixedRows=1;rowLines=0;fontStyle=0;strokeColor=default;fontSize=16;" vertex="1" parent="qOKPLslwm29kg5f4DnjJ-23">
          <mxGeometry width="230" height="130" as="geometry" />
        </mxCell>
        <mxCell id="qOKPLslwm29kg5f4DnjJ-3" value="" style="shape=tableRow;horizontal=0;startSize=0;swimlaneHead=0;swimlaneBody=0;top=0;left=0;bottom=0;right=0;collapsible=0;dropTarget=0;fillColor=none;points=[[0,0.5],[1,0.5]];portConstraint=eastwest;strokeColor=inherit;fontSize=16;" vertex="1" parent="qOKPLslwm29kg5f4DnjJ-2">
          <mxGeometry y="30" width="230" height="30" as="geometry" />
        </mxCell>
        <mxCell id="qOKPLslwm29kg5f4DnjJ-4" value="" style="shape=partialRectangle;html=1;whiteSpace=wrap;connectable=0;fillColor=none;top=0;left=0;bottom=0;right=0;overflow=hidden;pointerEvents=1;strokeColor=inherit;fontSize=16;" vertex="1" parent="qOKPLslwm29kg5f4DnjJ-3">
          <mxGeometry width="20" height="30" as="geometry">
            <mxRectangle width="20" height="30" as="alternateBounds" />
          </mxGeometry>
        </mxCell>
        <mxCell id="qOKPLslwm29kg5f4DnjJ-5" value="" style="shape=partialRectangle;html=1;whiteSpace=wrap;connectable=0;fillColor=none;top=0;left=0;bottom=0;right=0;align=left;spacingLeft=6;overflow=hidden;strokeColor=inherit;fontSize=16;" vertex="1" parent="qOKPLslwm29kg5f4DnjJ-3">
          <mxGeometry x="20" width="210" height="30" as="geometry">
            <mxRectangle width="210" height="30" as="alternateBounds" />
          </mxGeometry>
        </mxCell>
        <mxCell id="qOKPLslwm29kg5f4DnjJ-6" value="" style="shape=tableRow;horizontal=0;startSize=0;swimlaneHead=0;swimlaneBody=0;top=0;left=0;bottom=0;right=0;collapsible=0;dropTarget=0;fillColor=none;points=[[0,0.5],[1,0.5]];portConstraint=eastwest;strokeColor=inherit;fontSize=16;" vertex="1" parent="qOKPLslwm29kg5f4DnjJ-2">
          <mxGeometry y="60" width="230" height="30" as="geometry" />
        </mxCell>
        <mxCell id="qOKPLslwm29kg5f4DnjJ-7" value="" style="shape=partialRectangle;html=1;whiteSpace=wrap;connectable=0;fillColor=none;top=0;left=0;bottom=0;right=0;overflow=hidden;strokeColor=inherit;fontSize=16;" vertex="1" parent="qOKPLslwm29kg5f4DnjJ-6">
          <mxGeometry width="20" height="30" as="geometry">
            <mxRectangle width="20" height="30" as="alternateBounds" />
          </mxGeometry>
        </mxCell>
        <mxCell id="qOKPLslwm29kg5f4DnjJ-8" value="" style="shape=partialRectangle;html=1;whiteSpace=wrap;connectable=0;fillColor=none;top=0;left=0;bottom=0;right=0;align=left;spacingLeft=6;overflow=hidden;strokeColor=inherit;fontSize=16;" vertex="1" parent="qOKPLslwm29kg5f4DnjJ-6">
          <mxGeometry x="20" width="210" height="30" as="geometry">
            <mxRectangle width="210" height="30" as="alternateBounds" />
          </mxGeometry>
        </mxCell>
        <mxCell id="qOKPLslwm29kg5f4DnjJ-9" value="" style="shape=tableRow;horizontal=0;startSize=0;swimlaneHead=0;swimlaneBody=0;top=0;left=0;bottom=0;right=0;collapsible=0;dropTarget=0;fillColor=none;points=[[0,0.5],[1,0.5]];portConstraint=eastwest;strokeColor=inherit;fontSize=16;" vertex="1" parent="qOKPLslwm29kg5f4DnjJ-2">
          <mxGeometry y="90" width="230" height="30" as="geometry" />
        </mxCell>
        <mxCell id="qOKPLslwm29kg5f4DnjJ-10" value="" style="shape=partialRectangle;html=1;whiteSpace=wrap;connectable=0;fillColor=none;top=0;left=0;bottom=0;right=0;overflow=hidden;strokeColor=inherit;fontSize=16;" vertex="1" parent="qOKPLslwm29kg5f4DnjJ-9">
          <mxGeometry width="20" height="30" as="geometry">
            <mxRectangle width="20" height="30" as="alternateBounds" />
          </mxGeometry>
        </mxCell>
        <mxCell id="qOKPLslwm29kg5f4DnjJ-11" value="" style="shape=partialRectangle;html=1;whiteSpace=wrap;connectable=0;fillColor=none;top=0;left=0;bottom=0;right=0;align=left;spacingLeft=6;overflow=hidden;strokeColor=inherit;fontSize=16;" vertex="1" parent="qOKPLslwm29kg5f4DnjJ-9">
          <mxGeometry x="20" width="210" height="30" as="geometry">
            <mxRectangle width="210" height="30" as="alternateBounds" />
          </mxGeometry>
        </mxCell>
        <mxCell id="qOKPLslwm29kg5f4DnjJ-12" value="&lt;div style=&quot;text-align: justify;&quot;&gt;&lt;br&gt;&lt;/div&gt;&lt;span class=&quot;hljs-deletion&quot;&gt;&lt;div style=&quot;text-align: justify;&quot;&gt;&lt;span style=&quot;background-color: initial;&quot;&gt;- id: INT (PK)&lt;/span&gt;&lt;/div&gt;&lt;/span&gt;&lt;span class=&quot;hljs-deletion&quot;&gt;&lt;div style=&quot;text-align: justify;&quot;&gt;&lt;span style=&quot;background-color: initial;&quot;&gt;- nombre: VARCHAR(100)&lt;/span&gt;&lt;/div&gt;&lt;/span&gt;&lt;span class=&quot;hljs-deletion&quot;&gt;&lt;div style=&quot;text-align: justify;&quot;&gt;&lt;span style=&quot;background-color: initial;&quot;&gt;- email: VARCHAR(100) (UNIQUE)&lt;/span&gt;&lt;/div&gt;&lt;/span&gt;&lt;span class=&quot;hljs-deletion&quot;&gt;&lt;div style=&quot;text-align: justify;&quot;&gt;&lt;span style=&quot;background-color: initial;&quot;&gt;- contraseña: VARCHAR(255)&lt;/span&gt;&lt;/div&gt;&lt;/span&gt;&lt;span class=&quot;hljs-deletion&quot;&gt;&lt;div style=&quot;text-align: justify;&quot;&gt;&lt;span style=&quot;background-color: initial;&quot;&gt;- fecha_registro: TIMESTAMP&lt;/span&gt;&lt;/div&gt;&lt;/span&gt;" style="text;html=1;align=left;verticalAlign=middle;whiteSpace=wrap;rounded=0;" vertex="1" parent="qOKPLslwm29kg5f4DnjJ-23">
          <mxGeometry x="30" y="15" width="190" height="100" as="geometry" />
        </mxCell>
        <mxCell id="qOKPLslwm29kg5f4DnjJ-24" value="" style="group" vertex="1" connectable="0" parent="1">
          <mxGeometry x="290" y="20" width="210" height="260" as="geometry" />
        </mxCell>
        <mxCell id="qOKPLslwm29kg5f4DnjJ-36" value="" style="group" vertex="1" connectable="0" parent="qOKPLslwm29kg5f4DnjJ-24">
          <mxGeometry width="210" height="160" as="geometry" />
        </mxCell>
        <mxCell id="qOKPLslwm29kg5f4DnjJ-25" value="Inmobiliarias" style="shape=table;startSize=30;container=1;collapsible=0;childLayout=tableLayout;fixedRows=1;rowLines=0;fontStyle=0;strokeColor=default;fontSize=16;" vertex="1" parent="qOKPLslwm29kg5f4DnjJ-36">
          <mxGeometry width="210" height="160" as="geometry" />
        </mxCell>
        <mxCell id="qOKPLslwm29kg5f4DnjJ-26" value="" style="shape=tableRow;horizontal=0;startSize=0;swimlaneHead=0;swimlaneBody=0;top=0;left=0;bottom=0;right=0;collapsible=0;dropTarget=0;fillColor=none;points=[[0,0.5],[1,0.5]];portConstraint=eastwest;strokeColor=inherit;fontSize=16;" vertex="1" parent="qOKPLslwm29kg5f4DnjJ-25">
          <mxGeometry y="30" width="210" height="30" as="geometry" />
        </mxCell>
        <mxCell id="qOKPLslwm29kg5f4DnjJ-27" value="" style="shape=partialRectangle;html=1;whiteSpace=wrap;connectable=0;fillColor=none;top=0;left=0;bottom=0;right=0;overflow=hidden;pointerEvents=1;strokeColor=inherit;fontSize=16;" vertex="1" parent="qOKPLslwm29kg5f4DnjJ-26">
          <mxGeometry width="19" height="30" as="geometry">
            <mxRectangle width="19" height="30" as="alternateBounds" />
          </mxGeometry>
        </mxCell>
        <mxCell id="qOKPLslwm29kg5f4DnjJ-28" value="" style="shape=partialRectangle;html=1;whiteSpace=wrap;connectable=0;fillColor=none;top=0;left=0;bottom=0;right=0;align=left;spacingLeft=6;overflow=hidden;strokeColor=inherit;fontSize=16;" vertex="1" parent="qOKPLslwm29kg5f4DnjJ-26">
          <mxGeometry x="19" width="191" height="30" as="geometry">
            <mxRectangle width="191" height="30" as="alternateBounds" />
          </mxGeometry>
        </mxCell>
        <mxCell id="qOKPLslwm29kg5f4DnjJ-29" value="" style="shape=tableRow;horizontal=0;startSize=0;swimlaneHead=0;swimlaneBody=0;top=0;left=0;bottom=0;right=0;collapsible=0;dropTarget=0;fillColor=none;points=[[0,0.5],[1,0.5]];portConstraint=eastwest;strokeColor=inherit;fontSize=16;" vertex="1" parent="qOKPLslwm29kg5f4DnjJ-25">
          <mxGeometry y="60" width="210" height="30" as="geometry" />
        </mxCell>
        <mxCell id="qOKPLslwm29kg5f4DnjJ-30" value="" style="shape=partialRectangle;html=1;whiteSpace=wrap;connectable=0;fillColor=none;top=0;left=0;bottom=0;right=0;overflow=hidden;strokeColor=inherit;fontSize=16;" vertex="1" parent="qOKPLslwm29kg5f4DnjJ-29">
          <mxGeometry width="19" height="30" as="geometry">
            <mxRectangle width="19" height="30" as="alternateBounds" />
          </mxGeometry>
        </mxCell>
        <mxCell id="qOKPLslwm29kg5f4DnjJ-31" value="" style="shape=partialRectangle;html=1;whiteSpace=wrap;connectable=0;fillColor=none;top=0;left=0;bottom=0;right=0;align=left;spacingLeft=6;overflow=hidden;strokeColor=inherit;fontSize=16;" vertex="1" parent="qOKPLslwm29kg5f4DnjJ-29">
          <mxGeometry x="19" width="191" height="30" as="geometry">
            <mxRectangle width="191" height="30" as="alternateBounds" />
          </mxGeometry>
        </mxCell>
        <mxCell id="qOKPLslwm29kg5f4DnjJ-32" value="" style="shape=tableRow;horizontal=0;startSize=0;swimlaneHead=0;swimlaneBody=0;top=0;left=0;bottom=0;right=0;collapsible=0;dropTarget=0;fillColor=none;points=[[0,0.5],[1,0.5]];portConstraint=eastwest;strokeColor=inherit;fontSize=16;" vertex="1" parent="qOKPLslwm29kg5f4DnjJ-25">
          <mxGeometry y="90" width="210" height="30" as="geometry" />
        </mxCell>
        <mxCell id="qOKPLslwm29kg5f4DnjJ-33" value="" style="shape=partialRectangle;html=1;whiteSpace=wrap;connectable=0;fillColor=none;top=0;left=0;bottom=0;right=0;overflow=hidden;strokeColor=inherit;fontSize=16;" vertex="1" parent="qOKPLslwm29kg5f4DnjJ-32">
          <mxGeometry width="19" height="30" as="geometry">
            <mxRectangle width="19" height="30" as="alternateBounds" />
          </mxGeometry>
        </mxCell>
        <mxCell id="qOKPLslwm29kg5f4DnjJ-34" value="" style="shape=partialRectangle;html=1;whiteSpace=wrap;connectable=0;fillColor=none;top=0;left=0;bottom=0;right=0;align=left;spacingLeft=6;overflow=hidden;strokeColor=inherit;fontSize=16;" vertex="1" parent="qOKPLslwm29kg5f4DnjJ-32">
          <mxGeometry x="19" width="191" height="30" as="geometry">
            <mxRectangle width="191" height="30" as="alternateBounds" />
          </mxGeometry>
        </mxCell>
        <mxCell id="qOKPLslwm29kg5f4DnjJ-35" value="&lt;div style=&quot;text-align: justify;&quot;&gt;&lt;span class=&quot;hljs-deletion&quot;&gt;- id: INT (PK)&lt;/span&gt;&lt;br/&gt;&lt;span class=&quot;hljs-deletion&quot;&gt;- nombre: VARCHAR(100)&lt;/span&gt;&lt;br/&gt;&lt;span class=&quot;hljs-deletion&quot;&gt;- contacto: VARCHAR(100)&lt;/span&gt;&lt;br/&gt;&lt;span class=&quot;hljs-deletion&quot;&gt;- email: VARCHAR(100)&lt;/span&gt;&lt;br/&gt;&lt;span class=&quot;hljs-deletion&quot;&gt;- telefono: VARCHAR(20)&lt;/span&gt;&lt;br/&gt;&lt;span class=&quot;hljs-deletion&quot;&gt;- direccion: VARCHAR(255)&lt;/span&gt;&lt;br/&gt;&lt;span class=&quot;hljs-deletion&quot;&gt;- es_dueno: BOOLEAN&lt;/span&gt;&lt;br/&gt;&lt;span class=&quot;hljs-deletion&quot;&gt;- fecha_registro: TIMESTAMP&lt;/span&gt;&lt;br&gt;&lt;/div&gt;" style="text;html=1;align=left;verticalAlign=middle;whiteSpace=wrap;rounded=0;" vertex="1" parent="qOKPLslwm29kg5f4DnjJ-36">
          <mxGeometry x="30.000869565217393" y="30" width="173.47826086956525" height="120" as="geometry" />
        </mxCell>
        <mxCell id="qOKPLslwm29kg5f4DnjJ-37" value="" style="group" vertex="1" connectable="0" parent="1">
          <mxGeometry x="580" y="20" width="270" height="370" as="geometry" />
        </mxCell>
        <mxCell id="qOKPLslwm29kg5f4DnjJ-49" value="" style="group" vertex="1" connectable="0" parent="qOKPLslwm29kg5f4DnjJ-37">
          <mxGeometry width="270" height="280" as="geometry" />
        </mxCell>
        <mxCell id="qOKPLslwm29kg5f4DnjJ-38" value="Departamentos" style="shape=table;startSize=30;container=1;collapsible=0;childLayout=tableLayout;fixedRows=1;rowLines=0;fontStyle=0;strokeColor=default;fontSize=16;" vertex="1" parent="qOKPLslwm29kg5f4DnjJ-49">
          <mxGeometry width="270" height="270" as="geometry" />
        </mxCell>
        <mxCell id="qOKPLslwm29kg5f4DnjJ-39" value="" style="shape=tableRow;horizontal=0;startSize=0;swimlaneHead=0;swimlaneBody=0;top=0;left=0;bottom=0;right=0;collapsible=0;dropTarget=0;fillColor=none;points=[[0,0.5],[1,0.5]];portConstraint=eastwest;strokeColor=inherit;fontSize=16;" vertex="1" parent="qOKPLslwm29kg5f4DnjJ-38">
          <mxGeometry y="30" width="270" height="30" as="geometry" />
        </mxCell>
        <mxCell id="qOKPLslwm29kg5f4DnjJ-40" value="" style="shape=partialRectangle;html=1;whiteSpace=wrap;connectable=0;fillColor=none;top=0;left=0;bottom=0;right=0;overflow=hidden;pointerEvents=1;strokeColor=inherit;fontSize=16;" vertex="1" parent="qOKPLslwm29kg5f4DnjJ-39">
          <mxGeometry width="24" height="30" as="geometry">
            <mxRectangle width="24" height="30" as="alternateBounds" />
          </mxGeometry>
        </mxCell>
        <mxCell id="qOKPLslwm29kg5f4DnjJ-41" value="" style="shape=partialRectangle;html=1;whiteSpace=wrap;connectable=0;fillColor=none;top=0;left=0;bottom=0;right=0;align=left;spacingLeft=6;overflow=hidden;strokeColor=inherit;fontSize=16;" vertex="1" parent="qOKPLslwm29kg5f4DnjJ-39">
          <mxGeometry x="24" width="246" height="30" as="geometry">
            <mxRectangle width="246" height="30" as="alternateBounds" />
          </mxGeometry>
        </mxCell>
        <mxCell id="qOKPLslwm29kg5f4DnjJ-42" value="" style="shape=tableRow;horizontal=0;startSize=0;swimlaneHead=0;swimlaneBody=0;top=0;left=0;bottom=0;right=0;collapsible=0;dropTarget=0;fillColor=none;points=[[0,0.5],[1,0.5]];portConstraint=eastwest;strokeColor=inherit;fontSize=16;" vertex="1" parent="qOKPLslwm29kg5f4DnjJ-38">
          <mxGeometry y="60" width="270" height="30" as="geometry" />
        </mxCell>
        <mxCell id="qOKPLslwm29kg5f4DnjJ-43" value="" style="shape=partialRectangle;html=1;whiteSpace=wrap;connectable=0;fillColor=none;top=0;left=0;bottom=0;right=0;overflow=hidden;strokeColor=inherit;fontSize=16;" vertex="1" parent="qOKPLslwm29kg5f4DnjJ-42">
          <mxGeometry width="24" height="30" as="geometry">
            <mxRectangle width="24" height="30" as="alternateBounds" />
          </mxGeometry>
        </mxCell>
        <mxCell id="qOKPLslwm29kg5f4DnjJ-44" value="" style="shape=partialRectangle;html=1;whiteSpace=wrap;connectable=0;fillColor=none;top=0;left=0;bottom=0;right=0;align=left;spacingLeft=6;overflow=hidden;strokeColor=inherit;fontSize=16;" vertex="1" parent="qOKPLslwm29kg5f4DnjJ-42">
          <mxGeometry x="24" width="246" height="30" as="geometry">
            <mxRectangle width="246" height="30" as="alternateBounds" />
          </mxGeometry>
        </mxCell>
        <mxCell id="qOKPLslwm29kg5f4DnjJ-45" value="" style="shape=tableRow;horizontal=0;startSize=0;swimlaneHead=0;swimlaneBody=0;top=0;left=0;bottom=0;right=0;collapsible=0;dropTarget=0;fillColor=none;points=[[0,0.5],[1,0.5]];portConstraint=eastwest;strokeColor=inherit;fontSize=16;" vertex="1" parent="qOKPLslwm29kg5f4DnjJ-38">
          <mxGeometry y="90" width="270" height="30" as="geometry" />
        </mxCell>
        <mxCell id="qOKPLslwm29kg5f4DnjJ-46" value="" style="shape=partialRectangle;html=1;whiteSpace=wrap;connectable=0;fillColor=none;top=0;left=0;bottom=0;right=0;overflow=hidden;strokeColor=inherit;fontSize=16;" vertex="1" parent="qOKPLslwm29kg5f4DnjJ-45">
          <mxGeometry width="24" height="30" as="geometry">
            <mxRectangle width="24" height="30" as="alternateBounds" />
          </mxGeometry>
        </mxCell>
        <mxCell id="qOKPLslwm29kg5f4DnjJ-47" value="" style="shape=partialRectangle;html=1;whiteSpace=wrap;connectable=0;fillColor=none;top=0;left=0;bottom=0;right=0;align=left;spacingLeft=6;overflow=hidden;strokeColor=inherit;fontSize=16;" vertex="1" parent="qOKPLslwm29kg5f4DnjJ-45">
          <mxGeometry x="24" width="246" height="30" as="geometry">
            <mxRectangle width="246" height="30" as="alternateBounds" />
          </mxGeometry>
        </mxCell>
        <mxCell id="qOKPLslwm29kg5f4DnjJ-48" value="&lt;div style=&quot;text-align: justify;&quot;&gt;&lt;span class=&quot;hljs-deletion&quot;&gt;- id: INT (PK)&lt;/span&gt;&lt;br/&gt;&lt;span class=&quot;hljs-deletion&quot;&gt;- titulo: VARCHAR(200)&lt;/span&gt;&lt;br/&gt;&lt;span class=&quot;hljs-deletion&quot;&gt;- descripcion: TEXT&lt;/span&gt;&lt;br/&gt;&lt;span class=&quot;hljs-deletion&quot;&gt;- direccion: VARCHAR(255)&lt;/span&gt;&lt;br/&gt;&lt;span class=&quot;hljs-deletion&quot;&gt;- ciudad: VARCHAR(100)&lt;/span&gt;&lt;br/&gt;&lt;span class=&quot;hljs-deletion&quot;&gt;- provincia: VARCHAR(100)&lt;/span&gt;&lt;br/&gt;&lt;span class=&quot;hljs-deletion&quot;&gt;- pais: VARCHAR(100)&lt;/span&gt;&lt;br/&gt;&lt;span class=&quot;hljs-deletion&quot;&gt;- latitud: DECIMAL(9,6)&lt;/span&gt;&lt;br/&gt;&lt;span class=&quot;hljs-deletion&quot;&gt;- longitud: DECIMAL(9,6)&lt;/span&gt;&lt;br/&gt;&lt;span class=&quot;hljs-deletion&quot;&gt;- habitaciones: INT&lt;/span&gt;&lt;br/&gt;&lt;span class=&quot;hljs-deletion&quot;&gt;- baños: INT&lt;/span&gt;&lt;br/&gt;&lt;span class=&quot;hljs-deletion&quot;&gt;- garaje: BOOLEAN&lt;/span&gt;&lt;br/&gt;&lt;span class=&quot;hljs-deletion&quot;&gt;- patio: BOOLEAN&lt;/span&gt;&lt;br/&gt;&lt;span class=&quot;hljs-deletion&quot;&gt;- precio: DECIMAL(10,2)&lt;/span&gt;&lt;br/&gt;&lt;span class=&quot;hljs-deletion&quot;&gt;- agente_id: INT (FK to Inmobiliarias.id)&lt;/span&gt;&lt;br/&gt;&lt;span class=&quot;hljs-deletion&quot;&gt;- whatsapp_link: VARCHAR(255)&lt;/span&gt;&lt;br&gt;&lt;/div&gt;" style="text;html=1;align=left;verticalAlign=middle;whiteSpace=wrap;rounded=0;" vertex="1" parent="qOKPLslwm29kg5f4DnjJ-49">
          <mxGeometry x="30" y="20" width="240" height="260" as="geometry" />
        </mxCell>
        <mxCell id="qOKPLslwm29kg5f4DnjJ-50" value="" style="group" vertex="1" connectable="0" parent="1">
          <mxGeometry x="70" y="230" width="370" height="180" as="geometry" />
        </mxCell>
        <mxCell id="qOKPLslwm29kg5f4DnjJ-51" value="Favoritos" style="shape=table;startSize=30;container=1;collapsible=0;childLayout=tableLayout;fixedRows=1;rowLines=0;fontStyle=0;strokeColor=default;fontSize=16;" vertex="1" parent="qOKPLslwm29kg5f4DnjJ-50">
          <mxGeometry width="310" height="130" as="geometry" />
        </mxCell>
        <mxCell id="qOKPLslwm29kg5f4DnjJ-52" value="" style="shape=tableRow;horizontal=0;startSize=0;swimlaneHead=0;swimlaneBody=0;top=0;left=0;bottom=0;right=0;collapsible=0;dropTarget=0;fillColor=none;points=[[0,0.5],[1,0.5]];portConstraint=eastwest;strokeColor=inherit;fontSize=16;" vertex="1" parent="qOKPLslwm29kg5f4DnjJ-51">
          <mxGeometry y="30" width="310" height="30" as="geometry" />
        </mxCell>
        <mxCell id="qOKPLslwm29kg5f4DnjJ-53" value="" style="shape=partialRectangle;html=1;whiteSpace=wrap;connectable=0;fillColor=none;top=0;left=0;bottom=0;right=0;overflow=hidden;pointerEvents=1;strokeColor=inherit;fontSize=16;" vertex="1" parent="qOKPLslwm29kg5f4DnjJ-52">
          <mxGeometry width="28" height="30" as="geometry">
            <mxRectangle width="28" height="30" as="alternateBounds" />
          </mxGeometry>
        </mxCell>
        <mxCell id="qOKPLslwm29kg5f4DnjJ-54" value="" style="shape=partialRectangle;html=1;whiteSpace=wrap;connectable=0;fillColor=none;top=0;left=0;bottom=0;right=0;align=left;spacingLeft=6;overflow=hidden;strokeColor=inherit;fontSize=16;" vertex="1" parent="qOKPLslwm29kg5f4DnjJ-52">
          <mxGeometry x="28" width="282" height="30" as="geometry">
            <mxRectangle width="282" height="30" as="alternateBounds" />
          </mxGeometry>
        </mxCell>
        <mxCell id="qOKPLslwm29kg5f4DnjJ-55" value="" style="shape=tableRow;horizontal=0;startSize=0;swimlaneHead=0;swimlaneBody=0;top=0;left=0;bottom=0;right=0;collapsible=0;dropTarget=0;fillColor=none;points=[[0,0.5],[1,0.5]];portConstraint=eastwest;strokeColor=inherit;fontSize=16;" vertex="1" parent="qOKPLslwm29kg5f4DnjJ-51">
          <mxGeometry y="60" width="310" height="30" as="geometry" />
        </mxCell>
        <mxCell id="qOKPLslwm29kg5f4DnjJ-56" value="" style="shape=partialRectangle;html=1;whiteSpace=wrap;connectable=0;fillColor=none;top=0;left=0;bottom=0;right=0;overflow=hidden;strokeColor=inherit;fontSize=16;" vertex="1" parent="qOKPLslwm29kg5f4DnjJ-55">
          <mxGeometry width="28" height="30" as="geometry">
            <mxRectangle width="28" height="30" as="alternateBounds" />
          </mxGeometry>
        </mxCell>
        <mxCell id="qOKPLslwm29kg5f4DnjJ-57" value="" style="shape=partialRectangle;html=1;whiteSpace=wrap;connectable=0;fillColor=none;top=0;left=0;bottom=0;right=0;align=left;spacingLeft=6;overflow=hidden;strokeColor=inherit;fontSize=16;" vertex="1" parent="qOKPLslwm29kg5f4DnjJ-55">
          <mxGeometry x="28" width="282" height="30" as="geometry">
            <mxRectangle width="282" height="30" as="alternateBounds" />
          </mxGeometry>
        </mxCell>
        <mxCell id="qOKPLslwm29kg5f4DnjJ-58" value="" style="shape=tableRow;horizontal=0;startSize=0;swimlaneHead=0;swimlaneBody=0;top=0;left=0;bottom=0;right=0;collapsible=0;dropTarget=0;fillColor=none;points=[[0,0.5],[1,0.5]];portConstraint=eastwest;strokeColor=inherit;fontSize=16;" vertex="1" parent="qOKPLslwm29kg5f4DnjJ-51">
          <mxGeometry y="90" width="310" height="30" as="geometry" />
        </mxCell>
        <mxCell id="qOKPLslwm29kg5f4DnjJ-59" value="" style="shape=partialRectangle;html=1;whiteSpace=wrap;connectable=0;fillColor=none;top=0;left=0;bottom=0;right=0;overflow=hidden;strokeColor=inherit;fontSize=16;" vertex="1" parent="qOKPLslwm29kg5f4DnjJ-58">
          <mxGeometry width="28" height="30" as="geometry">
            <mxRectangle width="28" height="30" as="alternateBounds" />
          </mxGeometry>
        </mxCell>
        <mxCell id="qOKPLslwm29kg5f4DnjJ-60" value="" style="shape=partialRectangle;html=1;whiteSpace=wrap;connectable=0;fillColor=none;top=0;left=0;bottom=0;right=0;align=left;spacingLeft=6;overflow=hidden;strokeColor=inherit;fontSize=16;" vertex="1" parent="qOKPLslwm29kg5f4DnjJ-58">
          <mxGeometry x="28" width="282" height="30" as="geometry">
            <mxRectangle width="282" height="30" as="alternateBounds" />
          </mxGeometry>
        </mxCell>
        <mxCell id="qOKPLslwm29kg5f4DnjJ-61" value="&lt;div style=&quot;text-align: justify;&quot;&gt;&lt;span class=&quot;hljs-deletion&quot;&gt;- id: INT (PK)&lt;/span&gt;&lt;br/&gt;&lt;span class=&quot;hljs-deletion&quot;&gt;- usuario_id: INT (FK to Usuarios.id)&lt;/span&gt;&lt;br/&gt;&lt;span class=&quot;hljs-deletion&quot;&gt;- departamento_id: INT (FK to Departamentos.id)&lt;/span&gt;&lt;br/&gt;&lt;span class=&quot;hljs-deletion&quot;&gt;- fecha_agregado: TIMESTAMP&lt;/span&gt;&lt;br&gt;&lt;/div&gt;" style="text;html=1;align=left;verticalAlign=middle;whiteSpace=wrap;rounded=0;" vertex="1" parent="qOKPLslwm29kg5f4DnjJ-50">
          <mxGeometry x="40" y="10" width="270" height="135" as="geometry" />
        </mxCell>
        <mxCell id="qOKPLslwm29kg5f4DnjJ-62" value="" style="group" vertex="1" connectable="0" parent="1">
          <mxGeometry x="430" y="340" width="360" height="160" as="geometry" />
        </mxCell>
        <mxCell id="qOKPLslwm29kg5f4DnjJ-63" value="Fotos" style="shape=table;startSize=30;container=1;collapsible=0;childLayout=tableLayout;fixedRows=1;rowLines=0;fontStyle=0;strokeColor=default;fontSize=16;" vertex="1" parent="qOKPLslwm29kg5f4DnjJ-62">
          <mxGeometry width="310" height="130" as="geometry" />
        </mxCell>
        <mxCell id="qOKPLslwm29kg5f4DnjJ-64" value="" style="shape=tableRow;horizontal=0;startSize=0;swimlaneHead=0;swimlaneBody=0;top=0;left=0;bottom=0;right=0;collapsible=0;dropTarget=0;fillColor=none;points=[[0,0.5],[1,0.5]];portConstraint=eastwest;strokeColor=inherit;fontSize=16;" vertex="1" parent="qOKPLslwm29kg5f4DnjJ-63">
          <mxGeometry y="30" width="310" height="30" as="geometry" />
        </mxCell>
        <mxCell id="qOKPLslwm29kg5f4DnjJ-65" value="" style="shape=partialRectangle;html=1;whiteSpace=wrap;connectable=0;fillColor=none;top=0;left=0;bottom=0;right=0;overflow=hidden;pointerEvents=1;strokeColor=inherit;fontSize=16;" vertex="1" parent="qOKPLslwm29kg5f4DnjJ-64">
          <mxGeometry width="28" height="30" as="geometry">
            <mxRectangle width="28" height="30" as="alternateBounds" />
          </mxGeometry>
        </mxCell>
        <mxCell id="qOKPLslwm29kg5f4DnjJ-66" value="" style="shape=partialRectangle;html=1;whiteSpace=wrap;connectable=0;fillColor=none;top=0;left=0;bottom=0;right=0;align=left;spacingLeft=6;overflow=hidden;strokeColor=inherit;fontSize=16;" vertex="1" parent="qOKPLslwm29kg5f4DnjJ-64">
          <mxGeometry x="28" width="282" height="30" as="geometry">
            <mxRectangle width="282" height="30" as="alternateBounds" />
          </mxGeometry>
        </mxCell>
        <mxCell id="qOKPLslwm29kg5f4DnjJ-67" value="" style="shape=tableRow;horizontal=0;startSize=0;swimlaneHead=0;swimlaneBody=0;top=0;left=0;bottom=0;right=0;collapsible=0;dropTarget=0;fillColor=none;points=[[0,0.5],[1,0.5]];portConstraint=eastwest;strokeColor=inherit;fontSize=16;" vertex="1" parent="qOKPLslwm29kg5f4DnjJ-63">
          <mxGeometry y="60" width="310" height="30" as="geometry" />
        </mxCell>
        <mxCell id="qOKPLslwm29kg5f4DnjJ-68" value="" style="shape=partialRectangle;html=1;whiteSpace=wrap;connectable=0;fillColor=none;top=0;left=0;bottom=0;right=0;overflow=hidden;strokeColor=inherit;fontSize=16;" vertex="1" parent="qOKPLslwm29kg5f4DnjJ-67">
          <mxGeometry width="28" height="30" as="geometry">
            <mxRectangle width="28" height="30" as="alternateBounds" />
          </mxGeometry>
        </mxCell>
        <mxCell id="qOKPLslwm29kg5f4DnjJ-69" value="" style="shape=partialRectangle;html=1;whiteSpace=wrap;connectable=0;fillColor=none;top=0;left=0;bottom=0;right=0;align=left;spacingLeft=6;overflow=hidden;strokeColor=inherit;fontSize=16;" vertex="1" parent="qOKPLslwm29kg5f4DnjJ-67">
          <mxGeometry x="28" width="282" height="30" as="geometry">
            <mxRectangle width="282" height="30" as="alternateBounds" />
          </mxGeometry>
        </mxCell>
        <mxCell id="qOKPLslwm29kg5f4DnjJ-70" value="" style="shape=tableRow;horizontal=0;startSize=0;swimlaneHead=0;swimlaneBody=0;top=0;left=0;bottom=0;right=0;collapsible=0;dropTarget=0;fillColor=none;points=[[0,0.5],[1,0.5]];portConstraint=eastwest;strokeColor=inherit;fontSize=16;" vertex="1" parent="qOKPLslwm29kg5f4DnjJ-63">
          <mxGeometry y="90" width="310" height="30" as="geometry" />
        </mxCell>
        <mxCell id="qOKPLslwm29kg5f4DnjJ-71" value="" style="shape=partialRectangle;html=1;whiteSpace=wrap;connectable=0;fillColor=none;top=0;left=0;bottom=0;right=0;overflow=hidden;strokeColor=inherit;fontSize=16;" vertex="1" parent="qOKPLslwm29kg5f4DnjJ-70">
          <mxGeometry width="28" height="30" as="geometry">
            <mxRectangle width="28" height="30" as="alternateBounds" />
          </mxGeometry>
        </mxCell>
        <mxCell id="qOKPLslwm29kg5f4DnjJ-72" value="" style="shape=partialRectangle;html=1;whiteSpace=wrap;connectable=0;fillColor=none;top=0;left=0;bottom=0;right=0;align=left;spacingLeft=6;overflow=hidden;strokeColor=inherit;fontSize=16;" vertex="1" parent="qOKPLslwm29kg5f4DnjJ-70">
          <mxGeometry x="28" width="282" height="30" as="geometry">
            <mxRectangle width="282" height="30" as="alternateBounds" />
          </mxGeometry>
        </mxCell>
        <mxCell id="qOKPLslwm29kg5f4DnjJ-73" value="&lt;div style=&quot;text-align: justify;&quot;&gt;&lt;span class=&quot;hljs-deletion&quot;&gt;- id: INT (PK)&lt;/span&gt;&lt;br/&gt;&lt;span class=&quot;hljs-deletion&quot;&gt;- departamento_id: INT (FK to Departamentos.id)&lt;/span&gt;&lt;br/&gt;&lt;span class=&quot;hljs-deletion&quot;&gt;- url_foto: VARCHAR(255)&lt;/span&gt;&lt;br/&gt;&lt;span class=&quot;hljs-deletion&quot;&gt;- descripcion: VARCHAR(255)&lt;/span&gt;&lt;br&gt;&lt;/div&gt;" style="text;html=1;align=left;verticalAlign=middle;whiteSpace=wrap;rounded=0;" vertex="1" parent="qOKPLslwm29kg5f4DnjJ-62">
          <mxGeometry x="35.71" y="10" width="268.57" height="120" as="geometry" />
        </mxCell>
      </root>
    </mxGraphModel>
  </diagram>
</mxfile>
